<svg xmlns="http://www.w3.org/2000/svg" version="1.1" xmlns:xlink="http://www.w3.org/1999/xlink" xmlns:svgjs="http://svgjs.com/svgjs" width="1000" height="1000" preserveAspectRatio="none" viewBox="0 0 1000 1000"><g mask="url(&quot;#SvgjsMask1016&quot;)" fill="none"><rect width="1000" height="1000" x="0" y="0" fill="#0e2a47"></rect><path d="M0,459.973C89.142,459.417,179.61,444.343,253.817,394.947C327.407,345.962,375.661,268.696,409.837,187.166C443.239,107.482,473.786,17.739,446.268,-64.164C419.731,-143.147,324.657,-171.093,268.72,-232.847C214.516,-292.688,193.897,-381.027,123.477,-420.523C45.974,-463.992,-55.388,-499.002,-134.829,-459.185C-215.324,-418.839,-217.617,-305.429,-262.212,-227.208C-296.474,-167.112,-341.067,-117.01,-366.57,-52.705C-398.829,28.637,-451.115,111.507,-430.246,196.487C-408.616,284.569,-333.207,350.758,-255.86,398.126C-179.487,444.898,-89.555,460.532,0,459.973" fill="#0b2239"></path><path d="M1000 1342.203C1069.475 1347.962 1142.412 1350.301 1203.255 1316.271 1265.703 1281.344 1303.283 1217.026 1336.82 1153.82 1372.1109999999999 1087.309 1417.43 1015.878 1401.712 942.243 1386.128 869.235 1307.2069999999999 832.533 1256.535 777.711 1207.836 725.024 1174.077 658.043 1109.718 626.336 1038.938 591.466 955.866 569.635 880.3050000000001 592.357 804.883 615.037 761.261 688.957 708.133 747.096 653.467 806.919 569.512 856.54 564.9549999999999 937.45 560.385 1018.5889999999999 637.9929999999999 1077.773 685.807 1143.487 724.37 1196.487 761.912 1249.241 817.307 1284.276 872.4159999999999 1319.13 935.017 1336.816 1000 1342.203" fill="#113255"></path></g><defs><mask id="SvgjsMask1016"><rect width="1000" height="1000" fill="#ffffff"></rect></mask></defs></svg>